<?xml version="1.0" standalone="no"?>
<!DOCTYPE svg PUBLIC "-//W3C//DTD SVG 20010904//EN"
 "http://www.w3.org/TR/2001/REC-SVG-20010904/DTD/svg10.dtd">
<svg version="1.0" xmlns="http://www.w3.org/2000/svg"
 width="700.000000pt" height="700.000000pt" viewBox="0 0 700.000000 700.000000"
 preserveAspectRatio="xMidYMid meet">
<metadata>
Created by potrace 1.14, written by Peter Selinger 2001-2017
</metadata>
<g transform="translate(0.000000,700.000000) scale(0.100000,-0.100000)"
fill="#000000" stroke="none">
<path d="M1688 6415 c-2 -2 -25 -5 -53 -7 -269 -26 -549 -228 -672 -487 -277
-583 143 -1253 785 -1252 148 0 266 28 391 90 431 217 606 730 397 1165 -122
252 -382 445 -651 482 -47 6 -193 13 -197 9z m190 -612 c53 -25 124 -102 143
-154 69 -192 -61 -389 -261 -395 -84 -3 -154 23 -209 77 -68 67 -86 110 -86
209 0 73 4 92 27 136 73 139 243 194 386 127z"/>
<path d="M3995 5227 c-108 -36 -130 -63 -308 -368 -82 -140 -153 -261 -158
-269 -9 -15 -158 -272 -189 -325 -17 -30 -90 -155 -174 -300 -25 -44 -50 -87
-55 -95 -5 -8 -58 -99 -118 -202 -59 -103 -112 -186 -118 -185 -5 2 -16 15
-25 29 -8 14 -31 51 -50 83 -19 31 -39 64 -45 73 -92 154 -206 320 -238 347
-107 91 -279 86 -382 -11 -17 -16 -286 -438 -599 -939 -313 -500 -578 -926
-591 -945 -170 -267 -327 -522 -342 -558 -9 -21 -16 -66 -16 -103 -1 -124 74
-231 194 -275 40 -15 266 -17 2689 -18 1455 -1 2669 2 2698 7 169 24 277 184
240 351 -8 38 -45 106 -182 341 -29 50 -79 135 -111 190 -31 55 -95 163 -140
240 -46 77 -93 158 -106 181 -76 131 -151 261 -159 274 -11 18 -122 207 -155
265 -12 22 -91 157 -175 300 -84 143 -166 285 -183 315 -16 30 -35 62 -42 70
-7 8 -25 40 -42 70 -16 30 -76 134 -132 230 -57 96 -114 193 -126 215 -13 22
-50 86 -84 143 -34 57 -61 108 -61 113 0 5 -4 9 -10 9 -5 0 -10 5 -10 10 0 6
-21 46 -47 90 -27 45 -52 88 -58 98 -152 266 -266 453 -294 480 -19 19 -54 43
-78 54 -56 25 -165 32 -218 15z m610 -1742 c276 -473 513 -879 526 -902 13
-23 89 -154 169 -290 80 -136 152 -260 160 -274 8 -14 34 -59 58 -100 24 -41
54 -92 67 -114 13 -22 24 -43 25 -47 0 -5 -373 -8 -828 -8 l-829 0 -282 453
c-155 248 -287 459 -292 467 -5 8 -40 66 -79 128 -78 126 -77 107 -15 212 18
30 80 136 138 235 58 100 114 196 126 215 11 19 28 49 37 65 9 17 96 165 192
330 97 165 180 309 186 320 6 11 36 62 66 113 45 76 56 89 64 75 5 -10 235
-405 511 -878z m-2251 -275 c6 -11 182 -293 391 -627 209 -333 389 -621 400
-639 11 -18 41 -67 68 -109 26 -41 47 -78 47 -80 0 -3 -418 -5 -930 -5 l-929
0 136 218 c74 119 145 233 158 252 30 47 69 109 168 267 388 624 470 753 475
749 3 -3 10 -15 16 -26z"/>
</g>
</svg>
